<svg width="61" height="60" viewBox="0 0 61 60" fill="none" xmlns="http://www.w3.org/2000/svg">
<path d="M38.4417 1.55859C49.0417 4.91704 56.917 13.3092 59.4806 24.156V36.3638C56.9819 46.8807 49.1715 55.7716 38.7014 58.8313C36.9897 59.33 35.2261 59.5534 33.5066 60.0002H26.4936C24.7741 59.5612 23.0131 59.317 21.2988 58.8313C11.6365 56.0963 3.88582 47.9872 1.03906 38.4417V22.0781C4.01569 12.2002 11.7456 4.63392 21.5585 1.55859H38.4417ZM27.4806 3.4547C7.08322 5.1482 -4.05704 28.717 7.73517 45.6417C19.5274 62.5664 43.5741 60.7118 53.4572 43.7144C64.53 24.6703 49.0936 1.65989 27.4806 3.4547Z" fill="#F5D69C"/>
<path d="M11.8331 47.3887C-1.10457 34.0225 5.15517 11.4796 22.9188 6.4251C44.9006 0.167957 63.2019 23.7602 51.2772 43.355C42.7915 57.3004 23.1214 59.0537 11.8331 47.3887ZM28.2591 7.34977C11.4513 8.56536 1.4305 27.1446 9.99413 41.8225C18.1941 55.877 38.35 57.1783 48.3058 44.2796C60.4824 28.503 47.9318 5.9264 28.2591 7.34977Z" fill="#F5D69C"/>
<path d="M40.9481 24.3248C40.3793 24.9196 39.5455 25.3611 38.704 25.1923L38.9403 23.543C38.6884 22.6858 37.3378 23.1819 37.4001 24.2598C37.478 25.5819 40.3326 28.078 41.1455 29.3715C42.3481 31.2832 42.6468 33.0806 42.2183 35.3352C41.9533 36.7378 38.2806 42.5741 37.2494 43.8728C36.4365 44.8962 35.6235 45.6079 34.2962 45.8546C30.3248 46.5975 25.7975 46.0417 21.8442 45.4287L21.8624 44.4572L24.9326 43.6313C23.1923 42.6287 23.7377 40.0209 23.1326 39.0702C22.6442 38.3066 19.0183 36.6572 18.0962 36.8832C17.839 36.9456 18.1352 37.7092 16.8702 37.2806C16.3533 37.1066 12.3352 34.2079 12.239 33.8468C11.9455 32.7689 13.7507 32.8858 14.3585 32.4754C14.7559 32.2079 14.8754 31.304 15.7066 31.2676C17.4936 31.291 19.4235 34.8183 20.5248 35.1741C22.265 35.7404 23.2442 34.4131 22.8157 32.7585C21.1144 31.8313 19.2235 33.7066 17.9533 31.7767C16.291 29.2494 19.7585 26.0157 20.0572 23.4287C20.639 22.9144 21.3196 23.4546 21.9248 23.3715C22.3741 23.3092 22.6858 22.7897 23.2339 22.8313C24.1923 22.904 24.1455 24.691 24.5611 25.4287C25.7715 27.5741 28.7533 27.5585 30.7871 28.2936C33.2962 29.2027 35.1248 30.878 36.1014 33.3715C37.5196 33.0105 36.6858 31.5871 36.1014 30.7715C33.6494 27.3481 28.1196 27.1326 27.3326 22.1352C26.3066 15.6131 33.2157 12.0858 38.6728 14.691C42.1403 16.3456 43.8131 21.3092 40.9455 24.3144L40.9481 24.3248Z" fill="#F5D69C"/>
<path d="M8.30051 50.6928C-7.33509 34.5564 0.230021 7.34154 21.698 1.23944C48.2637 -6.3145 70.3815 22.1672 55.9701 45.8231C45.7148 62.6587 21.9428 64.7753 8.30051 50.6928ZM28.1519 2.35575C7.83908 3.82327 -4.27137 26.2531 6.07807 43.973C15.988 60.9404 40.3471 62.5114 52.379 46.9394C67.0949 27.893 51.927 0.637381 28.1519 2.35575Z" fill="#F5D69C"/>
</svg>
