<svg width="32" height="32" viewBox="0 0 32 32" fill="none" xmlns="http://www.w3.org/2000/svg">
<path d="M20.3367 16.0068H17.7202C17.7202 20.1871 17.7202 25.3327 17.7202 25.3327H13.843C13.843 25.3327 13.843 20.237 13.843 16.0068H12V12.7107H13.843V10.5788C13.843 9.0519 14.5686 6.66602 17.7558 6.66602L20.6288 6.67703V9.87657C20.6288 9.87657 18.883 9.87657 18.5435 9.87657C18.2041 9.87657 17.7215 10.0463 17.7215 10.7744V12.7114H20.6755L20.3367 16.0068Z" fill="#F5D69C"/>
<mask id="mask0_8357_3514" style="mask-type:luminance" maskUnits="userSpaceOnUse" x="12" y="6" width="9" height="20">
<path d="M20.3367 16.0068H17.7202C17.7202 20.1871 17.7202 25.3327 17.7202 25.3327H13.843C13.843 25.3327 13.843 20.237 13.843 16.0068H12V12.7107H13.843V10.5788C13.843 9.0519 14.5686 6.66602 17.7558 6.66602L20.6288 6.67703V9.87657C20.6288 9.87657 18.883 9.87657 18.5435 9.87657C18.2041 9.87657 17.7215 10.0463 17.7215 10.7744V12.7114H20.6755L20.3367 16.0068Z" fill="white"/>
</mask>
<g mask="url(#mask0_8357_3514)">
<rect width="32" height="32" fill="#F5D69C"/>
</g>
</svg>
