<svg width="40" height="38" viewBox="0 0 40 38" fill="none" xmlns="http://www.w3.org/2000/svg">
<path fill-rule="evenodd" clip-rule="evenodd" d="M19.9964 6.86817L21.7889 5.02567C25.9964 0.700668 33.7114 2.19317 36.4964 7.63067C37.8039 10.1882 38.0989 13.8807 35.7114 18.5932C33.4114 23.1307 28.6264 28.5657 19.9964 34.4857C11.3664 28.5657 6.58386 23.1307 4.28136 18.5932C1.89386 13.8782 2.18636 10.1882 3.49636 7.63067C6.28136 2.19317 13.9964 0.698168 18.2039 5.02317L19.9964 6.86817ZM19.9964 37.4982C58.3289 12.1682 31.7989 -7.60183 20.4364 2.85567C20.2864 2.99317 20.1389 3.13567 19.9964 3.28317C19.8553 3.1358 19.7085 2.99403 19.5564 2.85817C8.19636 -7.60683 -18.3361 12.1657 19.9964 37.4982Z" fill="#F5D69C"/>
</svg>
