<svg width="32" height="32" viewBox="0 0 32 32" fill="none" xmlns="http://www.w3.org/2000/svg">
<path d="M21.7266 6.66602C23.716 6.66626 25.334 8.28391 25.334 10.2734V21.7246C25.334 23.715 23.7156 25.333 21.7266 25.333H10.2754C8.28571 25.333 6.66797 23.715 6.66797 21.7246V10.2734C6.66797 8.28375 8.28571 6.66602 10.2754 6.66602H21.7266ZM8.48535 21.7246C8.48535 22.7121 9.28755 23.5126 10.2744 23.5127H21.7256C22.7111 23.5126 23.5146 22.7121 23.5146 21.7246V14.083H20.7266C20.9691 14.6739 21.1064 15.3213 21.1064 15.998C21.1064 18.812 18.8163 21.1035 16.001 21.1035C13.1857 21.1035 10.8965 18.812 10.8965 15.998C10.8965 15.3213 11.0319 14.6739 11.2725 14.083H8.48535V21.7246ZM16.002 12.7129C14.9055 12.713 13.9361 13.2555 13.3379 14.083C12.9493 14.6224 12.7175 15.2829 12.7168 15.998C12.715 17.8097 14.1891 19.283 16 19.2832C17.8105 19.2832 19.2871 17.8099 19.2871 15.998C19.287 15.2829 19.0533 14.6223 18.666 14.083C18.0691 13.2554 17.0979 12.7129 16.002 12.7129ZM22.7627 8.81738L20.0098 8.8252L20.0205 11.9902L23.1748 11.9795V8.81543L22.7627 8.81738Z" fill="#F5D69C"/>
<mask id="mask0_8357_3513" style="mask-type:luminance" maskUnits="userSpaceOnUse" x="6" y="6" width="20" height="20">
<path d="M21.7266 6.66602C23.716 6.66626 25.334 8.28391 25.334 10.2734V21.7246C25.334 23.715 23.7156 25.333 21.7266 25.333H10.2754C8.28571 25.333 6.66797 23.715 6.66797 21.7246V10.2734C6.66797 8.28375 8.28571 6.66602 10.2754 6.66602H21.7266ZM8.48535 21.7246C8.48535 22.7121 9.28755 23.5126 10.2744 23.5127H21.7256C22.7111 23.5126 23.5146 22.7121 23.5146 21.7246V14.083H20.7266C20.9691 14.6739 21.1064 15.3213 21.1064 15.998C21.1064 18.812 18.8163 21.1035 16.001 21.1035C13.1857 21.1035 10.8965 18.812 10.8965 15.998C10.8965 15.3213 11.0319 14.6739 11.2725 14.083H8.48535V21.7246ZM16.002 12.7129C14.9055 12.713 13.9361 13.2555 13.3379 14.083C12.9493 14.6224 12.7175 15.2829 12.7168 15.998C12.715 17.8097 14.1891 19.283 16 19.2832C17.8105 19.2832 19.2871 17.8099 19.2871 15.998C19.287 15.2829 19.0533 14.6223 18.666 14.083C18.0691 13.2554 17.0979 12.7129 16.002 12.7129ZM22.7627 8.81738L20.0098 8.8252L20.0205 11.9902L23.1748 11.9795V8.81543L22.7627 8.81738Z" fill="white"/>
</mask>
<g mask="url(#mask0_8357_3513)">
<rect width="32" height="32" fill="#F5D69C"/>
</g>
</svg>
