<svg width="32" height="32" viewBox="0 0 32 32" fill="none" xmlns="http://www.w3.org/2000/svg">
<path d="M10.7861 13.6377V25.333H6.89941V13.6377H10.7861ZM20.3301 13.3633C22.8884 13.3633 24.8066 15.0345 24.8066 18.626V25.333H20.918V19.0762C20.918 17.5051 20.3569 16.4318 18.9492 16.4316C17.8748 16.4316 17.236 17.154 16.9541 17.8535C16.8518 18.1034 16.8252 18.4504 16.8252 18.8008V25.333H12.9365C12.9366 25.3112 12.9887 14.7341 12.9365 13.6377H16.8262V15.2949C16.8184 15.3079 16.8068 15.3206 16.7998 15.333H16.8262V15.2949C17.3429 14.4998 18.2643 13.3634 20.3301 13.3633ZM8.86816 8C10.1987 8 11.0162 8.87327 11.042 10.0205C11.042 11.1433 10.199 12.042 8.84277 12.042H8.81738C7.51303 12.042 6.66801 11.1433 6.66797 10.0205C6.66797 8.87336 7.53812 8.00014 8.86816 8Z" fill="#F5D69C"/>
<mask id="mask0_8357_3512" style="mask-type:luminance" maskUnits="userSpaceOnUse" x="6" y="8" width="19" height="18">
<path d="M10.7861 13.6377V25.333H6.89941V13.6377H10.7861ZM20.3301 13.3633C22.8884 13.3633 24.8066 15.0345 24.8066 18.626V25.333H20.918V19.0762C20.918 17.5051 20.3569 16.4318 18.9492 16.4316C17.8748 16.4316 17.236 17.154 16.9541 17.8535C16.8518 18.1034 16.8252 18.4504 16.8252 18.8008V25.333H12.9365C12.9366 25.3112 12.9887 14.7341 12.9365 13.6377H16.8262V15.2949C16.8184 15.3079 16.8068 15.3206 16.7998 15.333H16.8262V15.2949C17.3429 14.4998 18.2643 13.3634 20.3301 13.3633ZM8.86816 8C10.1987 8 11.0162 8.87327 11.042 10.0205C11.042 11.1433 10.199 12.042 8.84277 12.042H8.81738C7.51303 12.042 6.66801 11.1433 6.66797 10.0205C6.66797 8.87336 7.53812 8.00014 8.86816 8Z" fill="white"/>
</mask>
<g mask="url(#mask0_8357_3512)">
<rect width="32" height="32" fill="#F5D69C"/>
</g>
</svg>
