<svg width="32" height="40" viewBox="0 0 32 40" fill="none" xmlns="http://www.w3.org/2000/svg">
<path d="M22.7409 9.66432C22.7409 5.86848 19.6634 2.79089 15.8674 2.79082C12.0713 2.79082 8.99395 5.86843 8.99395 9.66432C8.99415 13.46 12.0715 16.5369 15.8674 16.5369C19.6633 16.5368 22.7407 13.46 22.7409 9.66432ZM25.5318 9.66432C25.5316 15.0014 21.2045 19.3277 15.8674 19.3277C10.5302 19.3277 6.20332 15.0014 6.20312 9.66432C6.20312 4.32703 10.5301 0 15.8674 0C21.2046 6.66371e-05 25.5318 4.32706 25.5318 9.66432Z" fill="#F5D69C"/>
<path d="M15.8655 22.7383C24.628 22.7383 31.732 29.8416 31.732 38.6038C31.7319 39.3743 31.107 39.999 30.3366 39.9992H1.39541C0.624811 39.9992 0.000102716 39.3744 0 38.6038C0 29.8417 7.10327 22.7384 15.8655 22.7383ZM15.8655 25.5291C9.11585 25.5292 3.56083 30.6437 2.86441 37.2084H28.8667C28.1702 30.6436 22.6153 25.5291 15.8655 25.5291Z" fill="#F5D69C"/>
</svg>
