<svg width="40" height="40" viewBox="0 0 40 40" fill="none" xmlns="http://www.w3.org/2000/svg">
<g clip-path="url(#clip0_8338_4975)">
<path fill-rule="evenodd" clip-rule="evenodd" d="M26.1018 26.1063C26.334 25.8738 26.6097 25.6894 26.9132 25.5636C27.2167 25.4378 27.542 25.373 27.8706 25.373C28.1991 25.373 28.5244 25.4378 28.8279 25.5636C29.1314 25.6894 29.4071 25.8738 29.6393 26.1063L39.2643 35.7313C39.7334 36.2 39.9971 36.836 39.9973 37.4991C39.9976 38.1623 39.7343 38.7984 39.2656 39.2675C38.7968 39.7366 38.1609 40.0003 37.4977 40.0005C36.8345 40.0008 36.1984 39.7375 35.7293 39.2688L26.1043 29.6438C25.8719 29.4116 25.6875 29.1359 25.5617 28.8324C25.4359 28.5289 25.3711 28.2036 25.3711 27.875C25.3711 27.5465 25.4359 27.2212 25.5617 26.9177C25.6875 26.6142 25.8719 26.3384 26.1043 26.1063H26.1018Z" fill="#F5D69C"/>
<path fill-rule="evenodd" clip-rule="evenodd" d="M16.25 30C18.0557 30 19.8437 29.6443 21.5119 28.9533C23.1801 28.2623 24.6959 27.2495 25.9727 25.9727C27.2495 24.6959 28.2623 23.1801 28.9533 21.5119C29.6443 19.8437 30 18.0557 30 16.25C30 14.4443 29.6443 12.6563 28.9533 10.9881C28.2623 9.31988 27.2495 7.80409 25.9727 6.52728C24.6959 5.25048 23.1801 4.23766 21.5119 3.54666C19.8437 2.85565 18.0557 2.5 16.25 2.5C12.6033 2.5 9.10591 3.94866 6.52728 6.52728C3.94866 9.10591 2.5 12.6033 2.5 16.25C2.5 19.8967 3.94866 23.3941 6.52728 25.9727C9.10591 28.5513 12.6033 30 16.25 30V30ZM32.5 16.25C32.5 20.5598 30.788 24.693 27.7405 27.7405C24.693 30.788 20.5598 32.5 16.25 32.5C11.9402 32.5 7.80698 30.788 4.75951 27.7405C1.71205 24.693 0 20.5598 0 16.25C0 11.9402 1.71205 7.80698 4.75951 4.75951C7.80698 1.71205 11.9402 0 16.25 0C20.5598 0 24.693 1.71205 27.7405 4.75951C30.788 7.80698 32.5 11.9402 32.5 16.25V16.25Z" fill="#F5D69C"/>
</g>
<defs>
<clipPath id="clip0_8338_4975">
<rect width="40" height="40" fill="white"/>
</clipPath>
</defs>
</svg>
