<svg width="20" height="20" viewBox="0 0 20 20" fill="none" xmlns="http://www.w3.org/2000/svg">
<g clip-path="url(#clip0_8357_3656)">
<path fill-rule="evenodd" clip-rule="evenodd" d="M13.0529 13.0522C13.169 12.9359 13.3068 12.8437 13.4586 12.7808C13.6103 12.7179 13.773 12.6855 13.9372 12.6855C14.1015 12.6855 14.2642 12.7179 14.4159 12.7808C14.5677 12.8437 14.7055 12.9359 14.8216 13.0522L19.6341 17.8647C19.8687 18.099 20.0005 18.417 20.0006 18.7486C20.0007 19.0802 19.8691 19.3982 19.6347 19.6328C19.4003 19.8673 19.0824 19.9992 18.7508 19.9993C18.4192 19.9994 18.1012 19.8678 17.8666 19.6334L13.0541 14.8209C12.9379 14.7048 12.8457 14.567 12.7828 14.4152C12.7199 14.2635 12.6875 14.1008 12.6875 13.9365C12.6875 13.7723 12.7199 13.6096 12.7828 13.4579C12.8457 13.3061 12.9379 13.1682 13.0541 13.0522H13.0529Z" fill="#6A3D08"/>
<path fill-rule="evenodd" clip-rule="evenodd" d="M8.125 15C9.02784 15 9.92184 14.8222 10.7559 14.4767C11.5901 14.1312 12.348 13.6248 12.9864 12.9864C13.6248 12.348 14.1312 11.5901 14.4767 10.7559C14.8222 9.92184 15 9.02784 15 8.125C15 7.22216 14.8222 6.32817 14.4767 5.49405C14.1312 4.65994 13.6248 3.90204 12.9864 3.26364C12.348 2.62524 11.5901 2.11883 10.7559 1.77333C9.92184 1.42783 9.02784 1.25 8.125 1.25C6.30164 1.25 4.55295 1.97433 3.26364 3.26364C1.97433 4.55295 1.25 6.30164 1.25 8.125C1.25 9.94836 1.97433 11.697 3.26364 12.9864C4.55295 14.2757 6.30164 15 8.125 15ZM16.25 8.125C16.25 10.2799 15.394 12.3465 13.8702 13.8702C12.3465 15.394 10.2799 16.25 8.125 16.25C5.97012 16.25 3.90349 15.394 2.37976 13.8702C0.856024 12.3465 0 10.2799 0 8.125C0 5.97012 0.856024 3.90349 2.37976 2.37976C3.90349 0.856024 5.97012 0 8.125 0C10.2799 0 12.3465 0.856024 13.8702 2.37976C15.394 3.90349 16.25 5.97012 16.25 8.125Z" fill="#6A3D08"/>
</g>
<defs>
<clipPath id="clip0_8357_3656">
<rect width="20" height="20" fill="white"/>
</clipPath>
</defs>
</svg>
