<svg width="32" height="32" viewBox="0 0 32 32" fill="none" xmlns="http://www.w3.org/2000/svg">
<path fill-rule="evenodd" clip-rule="evenodd" d="M24.6781 8.65783L24.6285 8.62476C23.6032 7.6491 22.3961 7.18608 21.007 7.25222L20.9574 7.153L20.9905 7.13647C22.2472 6.85535 22.9914 6.55769 23.2229 6.22696C23.289 5.96237 23.2063 5.81354 22.9252 5.78047C22.2968 5.86315 21.7015 5.99545 21.1889 6.21042C21.8504 5.78047 22.0984 5.48281 21.9496 5.33398C21.3046 5.35052 20.5936 5.68125 19.866 6.34271C20.1306 5.87969 20.2463 5.61511 20.1802 5.58203C19.8164 5.81354 19.5187 6.07813 19.2541 6.35925C18.6919 6.98764 18.2454 7.56642 17.8981 8.09559L17.8816 8.12866C17.0051 9.56734 16.3768 11.006 16.013 12.4778L15.8807 12.5935L15.8476 12.6101C15.3184 11.9486 14.6735 11.3864 13.9128 10.9399C13.0198 10.3446 11.9615 9.79885 10.7378 9.25314C9.41488 8.55861 8.05888 7.99637 6.70288 7.54988C6.68635 9.08778 7.44703 10.2949 8.91878 11.1879V11.2045C8.40615 11.2045 7.89351 11.2871 7.39742 11.436C7.49664 12.8581 8.50537 13.8338 10.4071 14.3629L10.3905 14.396C9.64639 14.3464 9.03453 14.611 8.55498 15.1567C9.18336 16.3804 10.2913 16.9592 11.8954 16.9261C11.5812 17.0915 11.3331 17.2568 11.1677 17.4553C10.8701 17.7695 10.7709 18.1333 10.8701 18.5467C11.2174 19.1751 11.8292 19.4562 12.7387 19.4066L12.7883 19.4727L12.7718 19.5058C11.2008 21.1264 9.29912 21.854 7.08322 21.7052L7.05015 21.7217C5.69415 21.7052 4.23894 21.0602 2.66797 19.7704C4.23894 22.0359 6.33908 23.673 8.93532 24.7148C11.8954 25.6905 14.8719 25.7731 17.832 24.9298H17.8816C20.7589 24.103 23.1898 22.3832 25.2073 19.8035C26.1333 18.464 26.7121 17.1741 26.9436 15.9339C28.4484 15.9835 29.5233 15.5536 30.2013 14.6275L30.1848 14.5944C29.6721 14.7763 28.6965 14.7267 27.2578 14.4291V14.2637C28.8453 14.0818 29.7879 13.5692 30.0855 12.7258C28.9776 13.1558 27.8862 13.1723 26.8113 12.7589C26.6129 11.2706 25.9018 9.89807 24.6781 8.65783" fill="#F5D69C"/>
<mask id="mask0_8357_3515" style="mask-type:luminance" maskUnits="userSpaceOnUse" x="2" y="5" width="29" height="21">
<path fill-rule="evenodd" clip-rule="evenodd" d="M24.6781 8.65783L24.6285 8.62476C23.6032 7.6491 22.3961 7.18608 21.007 7.25222L20.9574 7.153L20.9905 7.13647C22.2472 6.85535 22.9914 6.55769 23.2229 6.22696C23.289 5.96237 23.2063 5.81354 22.9252 5.78047C22.2968 5.86315 21.7015 5.99545 21.1889 6.21042C21.8504 5.78047 22.0984 5.48281 21.9496 5.33398C21.3046 5.35052 20.5936 5.68125 19.866 6.34271C20.1306 5.87969 20.2463 5.61511 20.1802 5.58203C19.8164 5.81354 19.5187 6.07813 19.2541 6.35925C18.6919 6.98764 18.2454 7.56642 17.8981 8.09559L17.8816 8.12866C17.0051 9.56734 16.3768 11.006 16.013 12.4778L15.8807 12.5935L15.8476 12.6101C15.3184 11.9486 14.6735 11.3864 13.9128 10.9399C13.0198 10.3446 11.9615 9.79885 10.7378 9.25314C9.41488 8.55861 8.05888 7.99637 6.70288 7.54988C6.68635 9.08778 7.44703 10.2949 8.91878 11.1879V11.2045C8.40615 11.2045 7.89351 11.2871 7.39742 11.436C7.49664 12.8581 8.50537 13.8338 10.4071 14.3629L10.3905 14.396C9.64639 14.3464 9.03453 14.611 8.55498 15.1567C9.18336 16.3804 10.2913 16.9592 11.8954 16.9261C11.5812 17.0915 11.3331 17.2568 11.1677 17.4553C10.8701 17.7695 10.7709 18.1333 10.8701 18.5467C11.2174 19.1751 11.8292 19.4562 12.7387 19.4066L12.7883 19.4727L12.7718 19.5058C11.2008 21.1264 9.29912 21.854 7.08322 21.7052L7.05015 21.7217C5.69415 21.7052 4.23894 21.0602 2.66797 19.7704C4.23894 22.0359 6.33908 23.673 8.93532 24.7148C11.8954 25.6905 14.8719 25.7731 17.832 24.9298H17.8816C20.7589 24.103 23.1898 22.3832 25.2073 19.8035C26.1333 18.464 26.7121 17.1741 26.9436 15.9339C28.4484 15.9835 29.5233 15.5536 30.2013 14.6275L30.1848 14.5944C29.6721 14.7763 28.6965 14.7267 27.2578 14.4291V14.2637C28.8453 14.0818 29.7879 13.5692 30.0855 12.7258C28.9776 13.1558 27.8862 13.1723 26.8113 12.7589C26.6129 11.2706 25.9018 9.89807 24.6781 8.65783" fill="white"/>
</mask>
<g mask="url(#mask0_8357_3515)">
<rect width="32" height="32" fill="#F5D69C"/>
</g>
</svg>
